<svg width="64" height="32" viewBox="0 0 64 32" fill="none" xmlns="http://www.w3.org/2000/svg">
<path fill-rule="evenodd" clip-rule="evenodd" d="M26.1818 16C26.1818 21.6233 21.6233 26.1818 16 26.1818C10.3767 26.1818 5.81818 21.6233 5.81818 16C5.81818 10.3767 10.3767 5.81818 16 5.81818C21.6233 5.81818 26.1818 10.3767 26.1818 16ZM30.837 22C28.4634 27.8637 22.7148 32 16 32C7.16344 32 0 24.8366 0 16C0 7.16344 7.16344 0 16 0C22.7148 0 28.4634 4.13634 30.837 10H54L60 16L54 22H30.837Z" fill="url(#paint0_linear_99_2386)"/>
<path d="M16 27.7273C22.4768 27.7273 27.7273 22.4768 27.7273 16C27.7273 9.52318 22.4768 4.27271 16 4.27271C9.52318 4.27271 4.27271 9.52318 4.27271 16C4.27271 22.4768 9.52318 27.7273 16 27.7273Z" fill="url(#paint1_linear_99_2386)" stroke="white" stroke-width="6"/>
<path d="M60 16L54 10H58L64 16L58 22H54L60 16Z" fill="white"/>
<defs>
<linearGradient id="paint0_linear_99_2386" x1="-5.81818" y1="-1.81818" x2="36.3636" y2="33.4545" gradientUnits="userSpaceOnUse">
<stop stop-color="#43B54A"/>
<stop offset="1" stop-color="#1A4F9A"/>
</linearGradient>
<linearGradient id="paint1_linear_99_2386" x1="12.3636" y1="7.27271" x2="22.1818" y2="25.8182" gradientUnits="userSpaceOnUse">
<stop stop-color="#43B54A"/>
<stop offset="1" stop-color="#1A4F9A"/>
</linearGradient>
</defs>
</svg>
