<svg width="96" height="32" viewBox="0 0 96 32" fill="none" xmlns="http://www.w3.org/2000/svg">
<path d="M86.0002 22L62.0002 22L62.0002 10L86.0003 10L92.0002 16L86.0002 22Z" fill="#EFEFF0"/>
<path d="M92 16L86 22L90 22L96 16L90 10L86 10L92 16Z" fill="#EFEFF0"/>
<circle cx="16" cy="16" r="16" transform="matrix(-1 0 0 1 64 0)" fill="white"/>
<circle cx="16" cy="16" r="13" transform="matrix(-1 0 0 1 64 0)" stroke="#767680" stroke-opacity="0.12" stroke-width="6"/>
<path d="M10 22L34 22L34 10L9.99999 10L4 16L10 22Z" fill="#EFEFF0"/>
<path d="M4 16L10 22L6 22L-5.24537e-07 16L6 10L10 10L4 16Z" fill="#EFEFF0"/>
</svg>
