<svg width="25" height="13" viewBox="0 0 25 13" fill="none" xmlns="http://www.w3.org/2000/svg">
<path d="M8.51367 12.2314C8.01432 12.2314 7.66309 12.1595 7.45996 12.0156C7.26107 11.876 7.16162 11.6665 7.16162 11.3872C7.16162 10.981 7.28434 10.5514 7.52979 10.0986C7.77523 9.64583 8.1307 9.22266 8.59619 8.8291C9.06169 8.43132 9.6224 8.1097 10.2783 7.86426C10.9385 7.61458 11.679 7.48975 12.5 7.48975C13.3252 7.48975 14.0658 7.61458 14.7217 7.86426C15.3818 8.1097 15.9425 8.43132 16.4038 8.8291C16.8693 9.22266 17.2248 9.64583 17.4702 10.0986C17.7199 10.5514 17.8447 10.981 17.8447 11.3872C17.8447 11.6665 17.7432 11.876 17.54 12.0156C17.3411 12.1595 16.9899 12.2314 16.4863 12.2314H8.51367ZM12.5063 6.35352C12.0535 6.35352 11.6346 6.23079 11.2495 5.98535C10.8644 5.73568 10.5534 5.40137 10.3164 4.98242C10.0837 4.55924 9.96729 4.08529 9.96729 3.56055C9.96729 3.04427 10.0837 2.57878 10.3164 2.16406C10.5534 1.74935 10.8644 1.42139 11.2495 1.18018C11.6346 0.938965 12.0535 0.818359 12.5063 0.818359C12.9591 0.818359 13.3781 0.936849 13.7632 1.17383C14.1483 1.41081 14.4572 1.73665 14.6899 2.15137C14.9269 2.56185 15.0454 3.02734 15.0454 3.54785C15.0454 4.07682 14.9269 4.5529 14.6899 4.97607C14.4572 5.39925 14.1483 5.73568 13.7632 5.98535C13.3781 6.23079 12.9591 6.35352 12.5063 6.35352ZM1.65186 12.2314C1.24984 12.2314 0.962077 12.1532 0.788574 11.9966C0.619303 11.8442 0.534668 11.6263 0.534668 11.3428C0.534668 10.9027 0.642578 10.4562 0.858398 10.0034C1.07422 9.55062 1.38314 9.13379 1.78516 8.75293C2.19141 8.36784 2.68018 8.05892 3.25146 7.82617C3.82699 7.58919 4.47233 7.4707 5.1875 7.4707C5.77995 7.4707 6.30469 7.54899 6.76172 7.70557C7.22298 7.85791 7.63135 8.05257 7.98682 8.28955C7.64404 8.55615 7.34147 8.86507 7.0791 9.21631C6.82096 9.56331 6.61784 9.92301 6.46973 10.2954C6.32161 10.6678 6.24333 11.0233 6.23486 11.3618C6.2264 11.7004 6.30469 11.9902 6.46973 12.2314H1.65186ZM5.1875 6.49951C4.79395 6.49951 4.4279 6.3916 4.08936 6.17578C3.75505 5.95996 3.48633 5.66797 3.2832 5.2998C3.08008 4.93164 2.97852 4.52116 2.97852 4.06836C2.97428 3.61556 3.07585 3.20931 3.2832 2.84961C3.49056 2.48991 3.76139 2.20638 4.0957 1.99902C4.43424 1.78743 4.79818 1.68164 5.1875 1.68164C5.58105 1.68164 5.94499 1.78532 6.2793 1.99268C6.61784 2.1958 6.88867 2.47721 7.0918 2.83691C7.29492 3.19238 7.39648 3.59863 7.39648 4.05566C7.39648 4.5127 7.29492 4.92741 7.0918 5.2998C6.88867 5.66797 6.61995 5.95996 6.28564 6.17578C5.95133 6.3916 5.58529 6.49951 5.1875 6.49951ZM23.3481 12.2314H18.5303C18.6953 11.9902 18.7736 11.7004 18.7651 11.3618C18.7567 11.0233 18.6784 10.6678 18.5303 10.2954C18.3822 9.92301 18.1769 9.56331 17.9146 9.21631C17.6564 8.86507 17.356 8.55615 17.0132 8.28955C17.3687 8.05257 17.7749 7.85791 18.2319 7.70557C18.6932 7.54899 19.2201 7.4707 19.8125 7.4707C20.5277 7.4707 21.1709 7.58919 21.7422 7.82617C22.3177 8.05892 22.8086 8.36784 23.2148 8.75293C23.6211 9.13379 23.93 9.55062 24.1416 10.0034C24.3574 10.4562 24.4653 10.9027 24.4653 11.3428C24.4653 11.6263 24.3786 11.8442 24.2051 11.9966C24.0358 12.1532 23.7502 12.2314 23.3481 12.2314ZM19.8125 6.49951C19.4147 6.49951 19.0487 6.3916 18.7144 6.17578C18.38 5.95996 18.1113 5.66797 17.9082 5.2998C17.7051 4.92741 17.6035 4.5127 17.6035 4.05566C17.6035 3.59863 17.7051 3.19238 17.9082 2.83691C18.1113 2.47721 18.38 2.1958 18.7144 1.99268C19.0529 1.78532 19.4189 1.68164 19.8125 1.68164C20.2018 1.68164 20.5636 1.78743 20.8979 1.99902C21.2365 2.20638 21.5073 2.48991 21.7104 2.84961C21.9178 3.20931 22.0215 3.61556 22.0215 4.06836C22.0215 4.52116 21.9199 4.93164 21.7168 5.2998C21.5137 5.66797 21.2428 5.95996 20.9043 6.17578C20.57 6.3916 20.2061 6.49951 19.8125 6.49951Z" fill="black"/>
</svg>
